# xmcd CD database file
#
# Track frame offsets:
#	150
#	17825
#	40072
#	60350
#	79857
#	101040
#	122915
#	144675
#	171897
#	205475
#
# Disc length: 3060 seconds
#
# Revision: 1
# Processed by: cddbd v1.5.2PL0 Copyright (c) Steve Scherf et al.
# Submitted via: CDex 1.70beta2
#
DISCID=8a0bf20a
DTITLE=浜田省吾 - BALLADS ON PIANO
DYEAR=1900
DGENRE=New Age
TTITLE0=君に会うまでは
TTITLE1=片思い
TTITLE2=子午線
TTITLE3=愛という名のもとに
TTITLE4=悲しみは雪のように
TTITLE5=防波堤の上
TTITLE6=EDGE OF THE KNIFE
TTITLE7=もうひとつの土曜日
TTITLE8=遠くへ-1973年・春・20才
TTITLE9=MIDNIGHT FLIGHT ひとりぼっちのクリスマス・イブ
EXTD=
EXTT0=
EXTT1=
EXTT2=
EXTT3=
EXTT4=
EXTT5=
EXTT6=
EXTT7=
EXTT8=
EXTT9=
PLAYORDER=
